<svg aria-hidden="true" style="position: absolute; width: 0; height: 0; overflow: hidden;" version="1.1" xmlns="http://www.w3.org/2000/svg" xmlns:xlink="http://www.w3.org/1999/xlink">
<defs>
<symbol id="icon-shopping-cart" viewBox="0 0 24 24">
<title>shopping-cart</title>
<path d="M11 21c0-0.269-0.054-0.528-0.152-0.765-0.102-0.246-0.25-0.465-0.434-0.649s-0.404-0.332-0.649-0.434c-0.237-0.098-0.496-0.152-0.765-0.152s-0.528 0.054-0.765 0.152c-0.246 0.102-0.465 0.25-0.649 0.434s-0.332 0.404-0.434 0.649c-0.098 0.237-0.152 0.496-0.152 0.765s0.054 0.528 0.152 0.765c0.102 0.246 0.25 0.465 0.434 0.649s0.404 0.332 0.649 0.434c0.237 0.098 0.496 0.152 0.765 0.152s0.528-0.054 0.765-0.152c0.246-0.102 0.465-0.25 0.649-0.434s0.332-0.404 0.434-0.649c0.098-0.237 0.152-0.496 0.152-0.765zM22 21c0-0.269-0.054-0.528-0.152-0.765-0.102-0.246-0.25-0.465-0.434-0.649s-0.404-0.332-0.649-0.434c-0.237-0.098-0.496-0.152-0.765-0.152s-0.528 0.054-0.765 0.152c-0.246 0.102-0.465 0.25-0.649 0.434s-0.332 0.404-0.434 0.649c-0.098 0.237-0.152 0.496-0.152 0.765s0.054 0.528 0.152 0.765c0.102 0.246 0.25 0.465 0.434 0.649s0.404 0.332 0.649 0.434c0.237 0.098 0.496 0.152 0.765 0.152s0.528-0.054 0.765-0.152c0.246-0.102 0.465-0.25 0.649-0.434s0.332-0.404 0.434-0.649c0.098-0.237 0.152-0.496 0.152-0.765zM7.221 7h14.57l-1.371 7.191c-0.023 0.113-0.064 0.218-0.119 0.313-0.057 0.097-0.129 0.183-0.213 0.256-0.092 0.079-0.198 0.142-0.312 0.183-0.11 0.040-0.23 0.061-0.376 0.058h-9.734c-0.115 0.002-0.227-0.016-0.331-0.050-0.107-0.035-0.206-0.087-0.295-0.153-0.097-0.073-0.181-0.163-0.245-0.265-0.062-0.099-0.108-0.211-0.134-0.338zM1 2h3.18l0.832 4.155c0.004 0.028 0.010 0.057 0.017 0.084l1.671 8.347c0.073 0.367 0.211 0.708 0.402 1.011 0.197 0.313 0.448 0.583 0.738 0.8 0.264 0.198 0.56 0.352 0.876 0.455 0.31 0.101 0.641 0.153 0.979 0.148h9.706c0.356 0.007 0.719-0.055 1.056-0.177 0.348-0.126 0.665-0.313 0.939-0.55 0.249-0.215 0.463-0.472 0.632-0.759 0.165-0.282 0.286-0.593 0.353-0.925l1.602-8.402c0.103-0.543-0.252-1.066-0.795-1.17-0.066-0.012-0.131-0.018-0.188-0.017h-16.18l-0.84-4.196c-0.094-0.462-0.497-0.804-0.98-0.804h-4c-0.552 0-1 0.448-1 1s0.448 1 1 1z"></path>
</symbol>
<symbol id="icon-eye" viewBox="0 0 24 24">
<title>eye</title>
<path d="M0.106 11.553c-0.136 0.274-0.146 0.603 0 0.894 0.015 0.029 0.396 0.789 1.12 1.843 0.451 0.656 1.038 1.432 1.757 2.218 0.894 0.979 2.004 1.987 3.319 2.8 0.876 0.542 1.849 1 2.914 1.302 0.871 0.248 1.801 0.39 2.784 0.39s1.913-0.142 2.784-0.39c1.065-0.302 2.037-0.76 2.914-1.302 1.315-0.813 2.425-1.821 3.319-2.8 0.718-0.786 1.306-1.562 1.757-2.218 0.724-1.054 1.106-1.814 1.12-1.843 0.136-0.274 0.146-0.603 0-0.894-0.015-0.029-0.396-0.789-1.12-1.843-0.451-0.656-1.038-1.432-1.757-2.218-0.894-0.979-2.004-1.987-3.319-2.8-0.876-0.542-1.849-1-2.914-1.302-0.871-0.248-1.801-0.39-2.784-0.39s-1.913 0.142-2.784 0.39c-1.065 0.302-2.037 0.76-2.914 1.302-1.315 0.813-2.425 1.821-3.319 2.8-0.719 0.786-1.306 1.561-1.757 2.218-0.724 1.054-1.106 1.814-1.12 1.843zM2.141 12c0.165-0.284 0.41-0.687 0.734-1.158 0.41-0.596 0.94-1.296 1.585-2.001 0.805-0.881 1.775-1.756 2.894-2.448 0.743-0.459 1.547-0.835 2.409-1.079 0.703-0.2 1.449-0.314 2.237-0.314s1.534 0.114 2.238 0.314c0.862 0.245 1.666 0.62 2.409 1.079 1.119 0.692 2.089 1.567 2.894 2.448 0.644 0.705 1.175 1.405 1.585 2.001 0.323 0.471 0.569 0.873 0.734 1.158-0.165 0.284-0.41 0.687-0.734 1.158-0.41 0.596-0.94 1.296-1.585 2.001-0.805 0.881-1.775 1.756-2.894 2.448-0.743 0.459-1.547 0.835-2.409 1.079-0.704 0.2-1.45 0.314-2.238 0.314s-1.534-0.114-2.238-0.314c-0.862-0.245-1.666-0.62-2.409-1.079-1.119-0.692-2.089-1.567-2.894-2.448-0.644-0.705-1.175-1.405-1.585-2.001-0.323-0.471-0.569-0.874-0.733-1.158zM16 12c0-0.54-0.108-1.057-0.303-1.53-0.203-0.49-0.5-0.93-0.868-1.298s-0.809-0.666-1.299-0.869c-0.473-0.195-0.99-0.303-1.53-0.303s-1.057 0.108-1.53 0.303c-0.49 0.203-0.93 0.5-1.298 0.868s-0.666 0.809-0.869 1.299c-0.195 0.473-0.303 0.99-0.303 1.53s0.108 1.057 0.303 1.53c0.203 0.49 0.5 0.93 0.868 1.298s0.808 0.665 1.298 0.868c0.474 0.196 0.991 0.304 1.531 0.304s1.057-0.108 1.53-0.303c0.49-0.203 0.93-0.5 1.298-0.868s0.665-0.808 0.868-1.298c0.196-0.474 0.304-0.991 0.304-1.531zM14 12c0 0.273-0.054 0.53-0.151 0.765-0.101 0.244-0.25 0.464-0.435 0.65s-0.406 0.334-0.65 0.435c-0.234 0.096-0.491 0.15-0.764 0.15s-0.53-0.054-0.765-0.151c-0.244-0.101-0.464-0.25-0.65-0.435s-0.334-0.406-0.435-0.65c-0.096-0.234-0.15-0.491-0.15-0.764s0.054-0.53 0.151-0.765c0.101-0.244 0.25-0.464 0.435-0.65s0.406-0.334 0.65-0.435c0.234-0.096 0.491-0.15 0.764-0.15s0.53 0.054 0.765 0.151c0.244 0.101 0.464 0.25 0.65 0.435s0.334 0.406 0.435 0.65c0.096 0.234 0.15 0.491 0.15 0.764z"></path>
</symbol>
<symbol id="icon-search" viewBox="0 0 24 24">
<title>search</title>
<path d="M16.041 15.856c-0.034 0.026-0.067 0.055-0.099 0.087s-0.060 0.064-0.087 0.099c-0.627 0.604-1.365 1.091-2.18 1.429-0.822 0.34-1.725 0.529-2.675 0.529s-1.853-0.189-2.677-0.53c-0.856-0.354-1.627-0.874-2.273-1.521s-1.166-1.417-1.521-2.273c-0.34-0.823-0.529-1.726-0.529-2.676s0.189-1.853 0.53-2.677c0.354-0.855 0.874-1.627 1.52-2.273s1.418-1.166 2.273-1.52c0.824-0.341 1.727-0.53 2.677-0.53s1.853 0.189 2.677 0.53c0.856 0.354 1.627 0.874 2.273 1.521s1.166 1.417 1.521 2.273c0.34 0.823 0.529 1.726 0.529 2.676s-0.189 1.853-0.53 2.677c-0.338 0.815-0.825 1.553-1.429 2.18zM21.707 20.293l-3.675-3.675c0.525-0.656 0.96-1.387 1.286-2.176 0.44-1.062 0.682-2.225 0.682-3.442s-0.242-2.38-0.682-3.442c-0.456-1.102-1.125-2.093-1.954-2.922s-1.82-1.498-2.922-1.954c-1.062-0.44-2.225-0.682-3.442-0.682s-2.38 0.242-3.442 0.682c-1.102 0.456-2.093 1.125-2.922 1.954s-1.498 1.82-1.954 2.922c-0.44 1.062-0.682 2.225-0.682 3.442s0.242 2.38 0.682 3.442c0.456 1.102 1.125 2.093 1.954 2.922s1.82 1.498 2.922 1.954c1.062 0.44 2.225 0.682 3.442 0.682s2.38-0.242 3.442-0.682c0.788-0.327 1.52-0.762 2.176-1.286l3.675 3.675c0.391 0.391 1.024 0.391 1.414 0s0.391-1.024 0-1.414z"></path>
</symbol>
<symbol id="icon-menu" viewBox="0 0 24 24">
<title>menu</title>
<path d="M3 13h18c0.552 0 1-0.448 1-1s-0.448-1-1-1h-18c-0.552 0-1 0.448-1 1s0.448 1 1 1zM3 7h18c0.552 0 1-0.448 1-1s-0.448-1-1-1h-18c-0.552 0-1 0.448-1 1s0.448 1 1 1zM3 19h18c0.552 0 1-0.448 1-1s-0.448-1-1-1h-18c-0.552 0-1 0.448-1 1s0.448 1 1 1z"></path>
</symbol>
<symbol id="icon-cross" viewBox="0 0 20 20">
<title>cross</title>
<path d="M14.348 14.849c-0.469 0.469-1.229 0.469-1.697 0l-2.651-3.030-2.651 3.029c-0.469 0.469-1.229 0.469-1.697 0-0.469-0.469-0.469-1.229 0-1.697l2.758-3.15-2.759-3.152c-0.469-0.469-0.469-1.228 0-1.697s1.228-0.469 1.697 0l2.652 3.031 2.651-3.031c0.469-0.469 1.228-0.469 1.697 0s0.469 1.229 0 1.697l-2.758 3.152 2.758 3.15c0.469 0.469 0.469 1.229 0 1.698z"></path>
</symbol>
<symbol id="icon-minus" viewBox="0 0 20 20">
<title>minus</title>
<path d="M16 10c0 0.553-0.048 1-0.601 1h-10.798c-0.552 0-0.601-0.447-0.601-1s0.049-1 0.601-1h10.799c0.552 0 0.6 0.447 0.6 1z"></path>
</symbol>
<symbol id="icon-plus" viewBox="0 0 24 24">
<title>plus</title>
<path d="M5 13h6v6c0 0.552 0.448 1 1 1s1-0.448 1-1v-6h6c0.552 0 1-0.448 1-1s-0.448-1-1-1h-6v-6c0-0.552-0.448-1-1-1s-1 0.448-1 1v6h-6c-0.552 0-1 0.448-1 1s0.448 1 1 1z"></path>
</symbol>
<symbol id="icon-settings" viewBox="0 0 24 24">
<title>settings</title>
<path d="M16 12c0-0.54-0.108-1.057-0.303-1.53-0.203-0.49-0.5-0.93-0.868-1.298s-0.809-0.666-1.299-0.869c-0.473-0.195-0.99-0.303-1.53-0.303s-1.057 0.108-1.53 0.303c-0.49 0.203-0.93 0.5-1.298 0.868s-0.666 0.809-0.869 1.299c-0.195 0.473-0.303 0.99-0.303 1.53s0.108 1.057 0.303 1.53c0.203 0.49 0.5 0.93 0.868 1.298s0.808 0.665 1.298 0.868c0.474 0.196 0.991 0.304 1.531 0.304s1.057-0.108 1.53-0.303c0.49-0.203 0.93-0.5 1.298-0.868s0.665-0.808 0.868-1.298c0.196-0.474 0.304-0.991 0.304-1.531zM14 12c0 0.273-0.054 0.53-0.151 0.765-0.101 0.244-0.25 0.464-0.435 0.65s-0.406 0.334-0.65 0.435c-0.234 0.096-0.491 0.15-0.764 0.15s-0.53-0.054-0.765-0.151c-0.244-0.101-0.464-0.25-0.65-0.435s-0.334-0.406-0.435-0.65c-0.096-0.234-0.15-0.491-0.15-0.764s0.054-0.53 0.151-0.765c0.101-0.244 0.25-0.464 0.435-0.65s0.406-0.334 0.65-0.435c0.234-0.096 0.491-0.15 0.764-0.15s0.53 0.054 0.765 0.151c0.244 0.101 0.464 0.25 0.65 0.435s0.334 0.406 0.435 0.65c0.096 0.234 0.15 0.491 0.15 0.764zM20.315 15.404c0.046-0.105 0.112-0.191 0.192-0.257 0.057-0.047 0.122-0.084 0.19-0.109 0.066-0.024 0.139-0.038 0.213-0.038h0.090c0.405 0 0.793-0.081 1.148-0.228 0.368-0.152 0.698-0.375 0.974-0.651s0.499-0.606 0.651-0.974c0.146-0.354 0.227-0.742 0.227-1.147s-0.081-0.793-0.228-1.148c-0.152-0.368-0.375-0.698-0.651-0.974s-0.606-0.499-0.974-0.651c-0.354-0.146-0.742-0.227-1.147-0.227h-0.159c-0.11-0.001-0.215-0.028-0.308-0.076-0.066-0.034-0.125-0.079-0.174-0.133-0.047-0.050-0.087-0.11-0.117-0.179-0.003-0.029-0.004-0.059-0.004-0.089-0.046-0.106-0.064-0.219-0.054-0.328 0.006-0.074 0.025-0.146 0.056-0.213 0.029-0.064 0.071-0.126 0.118-0.174l0.062-0.062c0.286-0.286 0.503-0.618 0.65-0.973 0.152-0.368 0.228-0.759 0.228-1.149s-0.076-0.781-0.229-1.149c-0.147-0.355-0.365-0.686-0.653-0.974-0.286-0.286-0.618-0.503-0.973-0.65-0.368-0.152-0.759-0.228-1.149-0.228s-0.782 0.077-1.15 0.229c-0.355 0.147-0.686 0.365-0.972 0.651l-0.046 0.047c-0.083 0.080-0.183 0.136-0.288 0.166-0.072 0.020-0.146 0.028-0.219 0.023-0.071-0.005-0.143-0.022-0.218-0.055-0.101-0.044-0.187-0.11-0.253-0.19-0.047-0.057-0.084-0.122-0.109-0.19-0.025-0.067-0.039-0.14-0.039-0.214v-0.090c0-0.405-0.081-0.793-0.228-1.148-0.152-0.368-0.375-0.698-0.651-0.974s-0.606-0.499-0.974-0.651c-0.354-0.146-0.742-0.227-1.147-0.227s-0.793 0.081-1.148 0.228c-0.368 0.152-0.698 0.375-0.974 0.651s-0.498 0.606-0.65 0.973c-0.147 0.355-0.228 0.743-0.228 1.148v0.159c-0.001 0.11-0.028 0.215-0.076 0.308-0.034 0.066-0.079 0.125-0.133 0.174-0.050 0.047-0.11 0.087-0.179 0.117-0.029 0.003-0.059 0.004-0.089 0.004-0.106 0.046-0.219 0.064-0.328 0.054-0.075-0.006-0.147-0.025-0.214-0.055-0.064-0.030-0.126-0.071-0.174-0.118l-0.062-0.062c-0.286-0.286-0.618-0.503-0.973-0.65-0.368-0.152-0.759-0.228-1.149-0.228s-0.781 0.077-1.149 0.229c-0.354 0.147-0.686 0.365-0.973 0.653-0.286 0.286-0.503 0.618-0.65 0.973-0.152 0.368-0.228 0.759-0.228 1.149s0.077 0.781 0.229 1.149c0.147 0.354 0.365 0.686 0.651 0.971l0.047 0.047c0.080 0.083 0.136 0.183 0.166 0.288 0.020 0.072 0.028 0.146 0.023 0.219-0.005 0.071-0.022 0.143-0.054 0.215-0.006 0.016-0.013 0.034-0.021 0.052-0.041 0.109-0.108 0.203-0.191 0.275-0.057 0.049-0.12 0.087-0.189 0.114-0.066 0.026-0.139 0.041-0.194 0.043h-0.090c-0.405 0-0.793 0.081-1.148 0.228-0.367 0.152-0.697 0.375-0.973 0.651s-0.499 0.606-0.651 0.974c-0.147 0.354-0.228 0.742-0.228 1.147s0.081 0.793 0.228 1.148c0.152 0.368 0.375 0.698 0.651 0.974s0.606 0.499 0.974 0.651c0.354 0.146 0.742 0.227 1.147 0.227h0.159c0.11 0.001 0.215 0.028 0.308 0.076 0.066 0.034 0.125 0.079 0.174 0.133 0.048 0.052 0.089 0.113 0.121 0.188 0.046 0.106 0.064 0.219 0.054 0.328-0.006 0.074-0.025 0.146-0.056 0.213-0.029 0.064-0.071 0.126-0.118 0.174l-0.062 0.062c-0.286 0.286-0.503 0.618-0.65 0.973-0.152 0.368-0.228 0.759-0.228 1.149s0.076 0.781 0.229 1.149c0.147 0.355 0.365 0.686 0.653 0.974 0.286 0.286 0.618 0.503 0.973 0.65 0.368 0.152 0.759 0.228 1.149 0.228s0.781-0.076 1.149-0.229c0.355-0.147 0.686-0.365 0.972-0.651l0.047-0.048c0.083-0.080 0.183-0.136 0.288-0.166 0.072-0.020 0.146-0.028 0.219-0.023 0.071 0.005 0.143 0.022 0.215 0.054 0.016 0.006 0.034 0.013 0.052 0.021 0.109 0.041 0.203 0.108 0.275 0.191 0.049 0.056 0.087 0.12 0.114 0.189 0.025 0.066 0.041 0.139 0.042 0.194v0.091c0 0.405 0.081 0.793 0.228 1.148 0.152 0.368 0.375 0.698 0.651 0.974s0.606 0.499 0.974 0.651c0.355 0.146 0.743 0.227 1.148 0.227s0.793-0.081 1.148-0.228c0.368-0.152 0.698-0.375 0.974-0.651s0.499-0.606 0.651-0.974c0.147-0.355 0.228-0.743 0.228-1.148v-0.159c0.001-0.11 0.028-0.215 0.076-0.308 0.034-0.066 0.079-0.125 0.133-0.174 0.052-0.048 0.113-0.089 0.188-0.121 0.106-0.046 0.219-0.064 0.328-0.054 0.074 0.006 0.146 0.025 0.213 0.056 0.064 0.029 0.126 0.071 0.174 0.118l0.062 0.062c0.286 0.286 0.618 0.503 0.973 0.65 0.368 0.152 0.759 0.228 1.149 0.228s0.781-0.076 1.149-0.229c0.355-0.147 0.686-0.365 0.974-0.653 0.286-0.286 0.503-0.618 0.65-0.973 0.152-0.368 0.228-0.759 0.228-1.149s-0.076-0.781-0.229-1.149c-0.147-0.355-0.365-0.686-0.651-0.972l-0.048-0.047c-0.080-0.083-0.136-0.183-0.166-0.288-0.020-0.072-0.028-0.146-0.023-0.219 0.005-0.071 0.022-0.143 0.054-0.215zM18.485 14.596c-0.126 0.285-0.198 0.582-0.219 0.88-0.022 0.307 0.011 0.612 0.092 0.901 0.119 0.423 0.341 0.814 0.652 1.137l0.072 0.073c0.098 0.097 0.169 0.207 0.218 0.324 0.050 0.122 0.076 0.252 0.076 0.384s-0.025 0.262-0.076 0.384c-0.048 0.116-0.12 0.226-0.217 0.324-0.099 0.099-0.209 0.17-0.325 0.219-0.122 0.050-0.252 0.076-0.384 0.076s-0.262-0.025-0.384-0.076c-0.116-0.048-0.226-0.12-0.324-0.217l-0.061-0.061c-0.23-0.226-0.484-0.398-0.755-0.522-0.28-0.128-0.577-0.205-0.876-0.23-0.437-0.037-0.882 0.034-1.293 0.212-0.281 0.12-0.535 0.288-0.753 0.49-0.224 0.208-0.408 0.451-0.547 0.717-0.193 0.371-0.298 0.785-0.303 1.211v0.181c0 0.137-0.027 0.266-0.075 0.382-0.050 0.122-0.125 0.232-0.218 0.325s-0.203 0.167-0.325 0.218c-0.114 0.045-0.243 0.072-0.38 0.072s-0.266-0.027-0.382-0.075c-0.122-0.050-0.232-0.125-0.325-0.218s-0.167-0.203-0.218-0.325c-0.048-0.116-0.075-0.245-0.075-0.382v-0.090c-0.008-0.335-0.069-0.635-0.176-0.914-0.111-0.287-0.27-0.55-0.467-0.777-0.284-0.328-0.646-0.585-1.058-0.745-0.277-0.119-0.566-0.187-0.854-0.208-0.307-0.022-0.612 0.011-0.901 0.092-0.423 0.119-0.814 0.341-1.137 0.652l-0.073 0.072c-0.099 0.098-0.208 0.17-0.325 0.218-0.122 0.050-0.252 0.076-0.384 0.076s-0.262-0.025-0.384-0.076c-0.116-0.048-0.226-0.12-0.324-0.217-0.099-0.099-0.17-0.209-0.219-0.325-0.050-0.122-0.076-0.252-0.076-0.384s0.025-0.262 0.076-0.384c0.048-0.116 0.12-0.226 0.217-0.324l0.061-0.061c0.226-0.23 0.398-0.484 0.522-0.755 0.128-0.28 0.205-0.577 0.23-0.876 0.037-0.437-0.034-0.882-0.212-1.293-0.12-0.281-0.288-0.535-0.49-0.753-0.208-0.225-0.451-0.408-0.717-0.547-0.371-0.193-0.785-0.298-1.211-0.303l-0.178 0.002c-0.137 0-0.266-0.027-0.382-0.075-0.122-0.050-0.232-0.125-0.325-0.218s-0.167-0.203-0.218-0.325c-0.048-0.116-0.075-0.245-0.075-0.382s0.027-0.266 0.075-0.382c0.050-0.122 0.125-0.232 0.218-0.325s0.203-0.167 0.325-0.218c0.116-0.048 0.245-0.075 0.382-0.075h0.090c0.335-0.008 0.635-0.069 0.914-0.176 0.287-0.111 0.55-0.27 0.777-0.467 0.328-0.284 0.585-0.646 0.745-1.058 0.119-0.277 0.187-0.566 0.208-0.854 0.022-0.307-0.011-0.612-0.092-0.901-0.119-0.425-0.341-0.816-0.652-1.138l-0.073-0.073c-0.097-0.098-0.169-0.207-0.217-0.324-0.051-0.121-0.076-0.252-0.077-0.383s0.025-0.262 0.076-0.384c0.048-0.116 0.12-0.226 0.217-0.324 0.099-0.098 0.208-0.17 0.325-0.218 0.121-0.051 0.252-0.076 0.383-0.077s0.262 0.025 0.384 0.076c0.116 0.048 0.226 0.12 0.324 0.217l0.061 0.061c0.23 0.226 0.484 0.398 0.755 0.522 0.28 0.128 0.577 0.205 0.876 0.23 0.37 0.032 0.745-0.014 1.101-0.137 0.096-0.012 0.187-0.037 0.269-0.073 0.285-0.122 0.539-0.289 0.757-0.491 0.225-0.208 0.408-0.451 0.547-0.717 0.192-0.37 0.297-0.785 0.302-1.21v-0.181c0-0.137 0.027-0.266 0.075-0.382 0.050-0.122 0.125-0.232 0.218-0.325s0.203-0.167 0.325-0.218c0.116-0.048 0.245-0.075 0.382-0.075s0.266 0.027 0.382 0.075c0.122 0.050 0.232 0.125 0.325 0.218s0.167 0.203 0.218 0.325c0.048 0.116 0.075 0.245 0.075 0.382v0.090c0.001 0.314 0.056 0.613 0.157 0.892 0.104 0.288 0.256 0.552 0.447 0.783 0.266 0.323 0.607 0.581 0.996 0.751 0.281 0.124 0.579 0.196 0.876 0.217 0.307 0.022 0.612-0.011 0.901-0.092 0.423-0.119 0.814-0.341 1.137-0.652l0.073-0.072c0.097-0.098 0.207-0.169 0.324-0.218 0.122-0.050 0.252-0.076 0.384-0.076s0.262 0.025 0.384 0.076c0.116 0.048 0.226 0.12 0.324 0.217 0.099 0.099 0.17 0.209 0.219 0.325 0.050 0.122 0.076 0.252 0.076 0.384s-0.025 0.262-0.076 0.384c-0.048 0.116-0.12 0.226-0.217 0.324l-0.061 0.061c-0.226 0.23-0.398 0.484-0.522 0.755-0.128 0.28-0.205 0.577-0.23 0.876-0.032 0.37 0.014 0.745 0.137 1.101 0.012 0.096 0.037 0.187 0.073 0.269 0.122 0.285 0.289 0.539 0.491 0.757 0.208 0.224 0.451 0.408 0.717 0.547 0.371 0.193 0.785 0.298 1.211 0.303l0.179-0.002c0.137 0 0.266 0.027 0.382 0.075 0.122 0.050 0.232 0.125 0.325 0.218s0.167 0.203 0.218 0.325c0.048 0.116 0.075 0.245 0.075 0.382s-0.027 0.266-0.075 0.382c-0.050 0.122-0.125 0.232-0.218 0.325s-0.203 0.167-0.325 0.218c-0.116 0.048-0.245 0.075-0.382 0.075h-0.090c-0.314 0.001-0.613 0.056-0.892 0.157-0.288 0.104-0.552 0.256-0.783 0.447-0.323 0.266-0.581 0.607-0.75 0.993z"></path>
</symbol>
</defs>
</svg>
