<svg aria-hidden="true" style="position: absolute; width: 0; height: 0; overflow: hidden;" version="1.1" xmlns="http://www.w3.org/2000/svg" xmlns:xlink="http://www.w3.org/1999/xlink">
<defs>
<symbol id="icon-shopping-cart" viewBox="0 0 24 24">
<title>shopping-cart</title>
<path d="M11 21c0-0.269-0.054-0.528-0.152-0.765-0.102-0.246-0.25-0.465-0.434-0.649s-0.404-0.332-0.649-0.434c-0.237-0.098-0.496-0.152-0.765-0.152s-0.528 0.054-0.765 0.152c-0.246 0.102-0.465 0.25-0.649 0.434s-0.332 0.404-0.434 0.649c-0.098 0.237-0.152 0.496-0.152 0.765s0.054 0.528 0.152 0.765c0.102 0.246 0.25 0.465 0.434 0.649s0.404 0.332 0.649 0.434c0.237 0.098 0.496 0.152 0.765 0.152s0.528-0.054 0.765-0.152c0.246-0.102 0.465-0.25 0.649-0.434s0.332-0.404 0.434-0.649c0.098-0.237 0.152-0.496 0.152-0.765zM22 21c0-0.269-0.054-0.528-0.152-0.765-0.102-0.246-0.25-0.465-0.434-0.649s-0.404-0.332-0.649-0.434c-0.237-0.098-0.496-0.152-0.765-0.152s-0.528 0.054-0.765 0.152c-0.246 0.102-0.465 0.25-0.649 0.434s-0.332 0.404-0.434 0.649c-0.098 0.237-0.152 0.496-0.152 0.765s0.054 0.528 0.152 0.765c0.102 0.246 0.25 0.465 0.434 0.649s0.404 0.332 0.649 0.434c0.237 0.098 0.496 0.152 0.765 0.152s0.528-0.054 0.765-0.152c0.246-0.102 0.465-0.25 0.649-0.434s0.332-0.404 0.434-0.649c0.098-0.237 0.152-0.496 0.152-0.765zM7.221 7h14.57l-1.371 7.191c-0.023 0.113-0.064 0.218-0.119 0.313-0.057 0.097-0.129 0.183-0.213 0.256-0.092 0.079-0.198 0.142-0.312 0.183-0.11 0.040-0.23 0.061-0.376 0.058h-9.734c-0.115 0.002-0.227-0.016-0.331-0.050-0.107-0.035-0.206-0.087-0.295-0.153-0.097-0.073-0.181-0.163-0.245-0.265-0.062-0.099-0.108-0.211-0.134-0.338zM1 2h3.18l0.832 4.155c0.004 0.028 0.010 0.057 0.017 0.084l1.671 8.347c0.073 0.367 0.211 0.708 0.402 1.011 0.197 0.313 0.448 0.583 0.738 0.8 0.264 0.198 0.56 0.352 0.876 0.455 0.31 0.101 0.641 0.153 0.979 0.148h9.706c0.356 0.007 0.719-0.055 1.056-0.177 0.348-0.126 0.665-0.313 0.939-0.55 0.249-0.215 0.463-0.472 0.632-0.759 0.165-0.282 0.286-0.593 0.353-0.925l1.602-8.402c0.103-0.543-0.252-1.066-0.795-1.17-0.066-0.012-0.131-0.018-0.188-0.017h-16.18l-0.84-4.196c-0.094-0.462-0.497-0.804-0.98-0.804h-4c-0.552 0-1 0.448-1 1s0.448 1 1 1z"></path>
</symbol>
<symbol id="icon-eye" viewBox="0 0 24 24">
<title>eye</title>
<path d="M0.106 11.553c-0.136 0.274-0.146 0.603 0 0.894 0.015 0.029 0.396 0.789 1.12 1.843 0.451 0.656 1.038 1.432 1.757 2.218 0.894 0.979 2.004 1.987 3.319 2.8 0.876 0.542 1.849 1 2.914 1.302 0.871 0.248 1.801 0.39 2.784 0.39s1.913-0.142 2.784-0.39c1.065-0.302 2.037-0.76 2.914-1.302 1.315-0.813 2.425-1.821 3.319-2.8 0.718-0.786 1.306-1.562 1.757-2.218 0.724-1.054 1.106-1.814 1.12-1.843 0.136-0.274 0.146-0.603 0-0.894-0.015-0.029-0.396-0.789-1.12-1.843-0.451-0.656-1.038-1.432-1.757-2.218-0.894-0.979-2.004-1.987-3.319-2.8-0.876-0.542-1.849-1-2.914-1.302-0.871-0.248-1.801-0.39-2.784-0.39s-1.913 0.142-2.784 0.39c-1.065 0.302-2.037 0.76-2.914 1.302-1.315 0.813-2.425 1.821-3.319 2.8-0.719 0.786-1.306 1.561-1.757 2.218-0.724 1.054-1.106 1.814-1.12 1.843zM2.141 12c0.165-0.284 0.41-0.687 0.734-1.158 0.41-0.596 0.94-1.296 1.585-2.001 0.805-0.881 1.775-1.756 2.894-2.448 0.743-0.459 1.547-0.835 2.409-1.079 0.703-0.2 1.449-0.314 2.237-0.314s1.534 0.114 2.238 0.314c0.862 0.245 1.666 0.62 2.409 1.079 1.119 0.692 2.089 1.567 2.894 2.448 0.644 0.705 1.175 1.405 1.585 2.001 0.323 0.471 0.569 0.873 0.734 1.158-0.165 0.284-0.41 0.687-0.734 1.158-0.41 0.596-0.94 1.296-1.585 2.001-0.805 0.881-1.775 1.756-2.894 2.448-0.743 0.459-1.547 0.835-2.409 1.079-0.704 0.2-1.45 0.314-2.238 0.314s-1.534-0.114-2.238-0.314c-0.862-0.245-1.666-0.62-2.409-1.079-1.119-0.692-2.089-1.567-2.894-2.448-0.644-0.705-1.175-1.405-1.585-2.001-0.323-0.471-0.569-0.874-0.733-1.158zM16 12c0-0.54-0.108-1.057-0.303-1.53-0.203-0.49-0.5-0.93-0.868-1.298s-0.809-0.666-1.299-0.869c-0.473-0.195-0.99-0.303-1.53-0.303s-1.057 0.108-1.53 0.303c-0.49 0.203-0.93 0.5-1.298 0.868s-0.666 0.809-0.869 1.299c-0.195 0.473-0.303 0.99-0.303 1.53s0.108 1.057 0.303 1.53c0.203 0.49 0.5 0.93 0.868 1.298s0.808 0.665 1.298 0.868c0.474 0.196 0.991 0.304 1.531 0.304s1.057-0.108 1.53-0.303c0.49-0.203 0.93-0.5 1.298-0.868s0.665-0.808 0.868-1.298c0.196-0.474 0.304-0.991 0.304-1.531zM14 12c0 0.273-0.054 0.53-0.151 0.765-0.101 0.244-0.25 0.464-0.435 0.65s-0.406 0.334-0.65 0.435c-0.234 0.096-0.491 0.15-0.764 0.15s-0.53-0.054-0.765-0.151c-0.244-0.101-0.464-0.25-0.65-0.435s-0.334-0.406-0.435-0.65c-0.096-0.234-0.15-0.491-0.15-0.764s0.054-0.53 0.151-0.765c0.101-0.244 0.25-0.464 0.435-0.65s0.406-0.334 0.65-0.435c0.234-0.096 0.491-0.15 0.764-0.15s0.53 0.054 0.765 0.151c0.244 0.101 0.464 0.25 0.65 0.435s0.334 0.406 0.435 0.65c0.096 0.234 0.15 0.491 0.15 0.764z"></path>
</symbol>
<symbol id="icon-search" viewBox="0 0 24 24">
<title>search</title>
<path d="M16.041 15.856c-0.034 0.026-0.067 0.055-0.099 0.087s-0.060 0.064-0.087 0.099c-0.627 0.604-1.365 1.091-2.18 1.429-0.822 0.34-1.725 0.529-2.675 0.529s-1.853-0.189-2.677-0.53c-0.856-0.354-1.627-0.874-2.273-1.521s-1.166-1.417-1.521-2.273c-0.34-0.823-0.529-1.726-0.529-2.676s0.189-1.853 0.53-2.677c0.354-0.855 0.874-1.627 1.52-2.273s1.418-1.166 2.273-1.52c0.824-0.341 1.727-0.53 2.677-0.53s1.853 0.189 2.677 0.53c0.856 0.354 1.627 0.874 2.273 1.521s1.166 1.417 1.521 2.273c0.34 0.823 0.529 1.726 0.529 2.676s-0.189 1.853-0.53 2.677c-0.338 0.815-0.825 1.553-1.429 2.18zM21.707 20.293l-3.675-3.675c0.525-0.656 0.96-1.387 1.286-2.176 0.44-1.062 0.682-2.225 0.682-3.442s-0.242-2.38-0.682-3.442c-0.456-1.102-1.125-2.093-1.954-2.922s-1.82-1.498-2.922-1.954c-1.062-0.44-2.225-0.682-3.442-0.682s-2.38 0.242-3.442 0.682c-1.102 0.456-2.093 1.125-2.922 1.954s-1.498 1.82-1.954 2.922c-0.44 1.062-0.682 2.225-0.682 3.442s0.242 2.38 0.682 3.442c0.456 1.102 1.125 2.093 1.954 2.922s1.82 1.498 2.922 1.954c1.062 0.44 2.225 0.682 3.442 0.682s2.38-0.242 3.442-0.682c0.788-0.327 1.52-0.762 2.176-1.286l3.675 3.675c0.391 0.391 1.024 0.391 1.414 0s0.391-1.024 0-1.414z"></path>
</symbol>
<symbol id="icon-menu" viewBox="0 0 24 24">
<title>menu</title>
<path d="M3 13h18c0.552 0 1-0.448 1-1s-0.448-1-1-1h-18c-0.552 0-1 0.448-1 1s0.448 1 1 1zM3 7h18c0.552 0 1-0.448 1-1s-0.448-1-1-1h-18c-0.552 0-1 0.448-1 1s0.448 1 1 1zM3 19h18c0.552 0 1-0.448 1-1s-0.448-1-1-1h-18c-0.552 0-1 0.448-1 1s0.448 1 1 1z"></path>
</symbol>
<symbol id="icon-cross" viewBox="0 0 20 20">
<title>cross</title>
<path d="M14.348 14.849c-0.469 0.469-1.229 0.469-1.697 0l-2.651-3.030-2.651 3.029c-0.469 0.469-1.229 0.469-1.697 0-0.469-0.469-0.469-1.229 0-1.697l2.758-3.15-2.759-3.152c-0.469-0.469-0.469-1.228 0-1.697s1.228-0.469 1.697 0l2.652 3.031 2.651-3.031c0.469-0.469 1.228-0.469 1.697 0s0.469 1.229 0 1.697l-2.758 3.152 2.758 3.15c0.469 0.469 0.469 1.229 0 1.698z"></path>
</symbol>
<symbol id="icon-minus" viewBox="0 0 20 20">
<title>minus</title>
<path d="M16 10c0 0.553-0.048 1-0.601 1h-10.798c-0.552 0-0.601-0.447-0.601-1s0.049-1 0.601-1h10.799c0.552 0 0.6 0.447 0.6 1z"></path>
</symbol>
<symbol id="icon-plus" viewBox="0 0 24 24">
<title>plus</title>
<path d="M5 13h6v6c0 0.552 0.448 1 1 1s1-0.448 1-1v-6h6c0.552 0 1-0.448 1-1s-0.448-1-1-1h-6v-6c0-0.552-0.448-1-1-1s-1 0.448-1 1v6h-6c-0.552 0-1 0.448-1 1s0.448 1 1 1z"></path>
</symbol>
</defs>
</svg>
