<svg aria-hidden="true" style="position: absolute; width: 0; height: 0; overflow: hidden;" version="1.1" xmlns="http://www.w3.org/2000/svg" xmlns:xlink="http://www.w3.org/1999/xlink">
<defs>
<symbol id="icon-windows" viewBox="0 0 18 18">
<title>windows</title>
<path d="M17 1h-10c-0.552 0-1 0.448-1 1v3h-5c-0.552 0-1 0.448-1 1v10c0 0.552 0.448 1 1 1h10c0.552 0 1-0.448 1-1v-3h5c0.552 0 1-0.448 1-1v-10c0-0.552-0.448-1-1-1zM10 14.5c0 0.276-0.224 0.5-0.5 0.5h-7c-0.276 0-0.5-0.224-0.5-0.5v-7c0-0.276 0.224-0.5 0.5-0.5h7c0.276 0 0.5 0.224 0.5 0.5v7zM16 10.5c0 0.276-0.224 0.5-0.5 0.5h-3.5v-5c0-0.552-0.448-1-1-1h-3v-1.5c0-0.276 0.224-0.5 0.5-0.5h7c0.276 0 0.5 0.224 0.5 0.5v7z"></path>
</symbol>
<symbol id="icon-maximize" viewBox="0 0 24 24">
<title>maximize</title>
<path d="M8 20h-3c-0.6 0-1-0.4-1-1v-3c0-0.6-0.4-1-1-1s-1 0.4-1 1v3c0 1.7 1.3 3 3 3h3c0.6 0 1-0.4 1-1s-0.4-1-1-1z"></path>
<path d="M8 2h-3c-1.7 0-3 1.3-3 3v3c0 0.6 0.4 1 1 1s1-0.4 1-1v-3c0-0.6 0.4-1 1-1h3c0.6 0 1-0.4 1-1s-0.4-1-1-1z"></path>
<path d="M19 2h-3c-0.6 0-1 0.4-1 1s0.4 1 1 1h3c0.6 0 1 0.4 1 1v3c0 0.6 0.4 1 1 1s1-0.4 1-1v-3c0-1.7-1.3-3-3-3z"></path>
<path d="M21 15c-0.6 0-1 0.4-1 1v3c0 0.6-0.4 1-1 1h-3c-0.6 0-1 0.4-1 1s0.4 1 1 1h3c1.7 0 3-1.3 3-3v-3c0-0.6-0.4-1-1-1z"></path>
</symbol>
<symbol id="icon-cross" viewBox="0 0 20 20">
<title>cross</title>
<path d="M14.348 14.849c-0.469 0.469-1.229 0.469-1.697 0l-2.651-3.030-2.651 3.029c-0.469 0.469-1.229 0.469-1.697 0-0.469-0.469-0.469-1.229 0-1.697l2.758-3.15-2.759-3.152c-0.469-0.469-0.469-1.228 0-1.697s1.228-0.469 1.697 0l2.652 3.031 2.651-3.031c0.469-0.469 1.228-0.469 1.697 0s0.469 1.229 0 1.697l-2.758 3.152 2.758 3.15c0.469 0.469 0.469 1.229 0 1.698z"></path>
</symbol>
<symbol id="icon-minus" viewBox="0 0 20 20">
<title>minus</title>
<path d="M16 10c0 0.553-0.048 1-0.601 1h-10.798c-0.552 0-0.601-0.447-0.601-1s0.049-1 0.601-1h10.799c0.552 0 0.6 0.447 0.6 1z"></path>
</symbol>
</defs>
</svg>
